# Blender v2.92.0 OBJ File: ''
# www.blender.org
mtllib poolstick.mtl
o PoolStick2_Circle.004
v 4.704349 -0.035056 -0.051004
v 4.832675 -0.035277 -0.051593
v 4.832748 -0.056003 -0.001107
v 4.704420 -0.055561 -0.001057
v 4.704389 -0.034743 0.048759
v 4.832716 -0.034960 0.049248
v 4.832599 0.015525 0.069974
v 4.704272 0.015203 0.069264
v 4.704140 0.065020 0.048446
v 4.832465 0.065880 0.048931
v 4.832393 0.086606 -0.001555
v 4.704068 0.085526 -0.001500
v 4.704100 0.064707 -0.051317
v 4.832425 0.065563 -0.051909
v 4.832542 0.015078 -0.072636
v 4.704216 0.014760 -0.071822
v 4.845536 0.060059 0.043109
v 4.845471 0.078387 -0.001534
v 4.845500 0.059779 -0.046061
v 4.845604 0.015136 -0.064389
v 4.845722 -0.029391 -0.045781
v 4.845785 -0.047719 -0.001138
v 4.845757 -0.029111 0.043389
v 4.845654 0.015532 0.061717
v 4.858548 -0.018873 -0.035367
v 4.858596 -0.032904 -0.001190
v 4.858575 -0.018660 0.032898
v 4.858495 0.015518 0.046929
v 4.858405 0.049606 0.032684
v 4.858355 0.063637 -0.001493
v 4.858377 0.049391 -0.035581
v 4.858457 0.015215 -0.049612
v 4.866801 0.015488 0.030806
v 4.866741 0.038192 0.021318
v 4.866708 0.047538 -0.001446
v 4.866723 0.038050 -0.024150
v 4.866836 -0.007419 -0.024007
v 4.866869 -0.016763 -0.001244
v 4.866854 -0.007275 0.021460
v 4.866776 0.015286 -0.033495
v -1.984671 -0.032522 0.001526
v -1.992848 -0.026351 0.001510
v -1.992873 -0.019181 -0.015954
v -1.984703 -0.023553 -0.020322
v -1.984736 -0.001568 0.032286
v -1.992900 -0.001607 0.026099
v -1.992859 -0.019072 0.018929
v -1.984685 -0.023416 0.023317
v -1.984825 0.029192 0.001332
v -1.992971 0.022980 0.001355
v -1.992946 0.015811 0.018819
v -1.984793 0.020222 0.023180
v -1.984761 -0.001762 -0.029428
v -1.992919 -0.001762 -0.023233
v -1.992960 0.015701 -0.016064
v -1.984811 0.020085 -0.020459
v -1.996531 -0.001643 0.017671
v -1.996504 -0.013139 0.012951
v -1.996577 0.014543 0.001383
v -1.996561 0.009823 0.012879
v -1.996543 -0.001746 -0.014803
v -1.996570 0.009751 -0.010083
v -1.996513 -0.013212 -0.010011
v -1.996496 -0.017932 0.001485
v 0.434289 -0.027712 -0.031417
v 0.434335 -0.040854 0.000592
v 0.434315 -0.027512 0.032518
v 0.434240 0.004497 0.045659
v 0.434155 0.036423 0.032317
v 0.434110 0.049564 0.000308
v 0.434130 0.036222 -0.031618
v 0.434205 0.004213 -0.044759
v 0.616218 0.051098 0.000231
v 0.616239 0.037437 -0.032458
v 0.616352 0.004953 0.046666
v 0.616265 0.037643 0.033005
v 0.616448 -0.041481 0.000522
v 0.616428 -0.027820 0.033211
v 0.616314 0.004663 -0.045913
v 0.616402 -0.028026 -0.032253
v 2.630544 -0.031490 -0.041492
v 4.158961 -0.034118 -0.048502
v 4.159029 -0.053682 -0.000847
v 2.630603 -0.048418 -0.000256
v 2.630577 -0.031231 0.040872
v 4.158999 -0.033819 0.046685
v 4.158888 0.013836 0.066250
v 2.630481 0.010004 0.057800
v 2.630372 0.051132 0.040613
v 4.158762 0.061367 0.046386
v 4.158694 0.080932 -0.001269
v 2.630313 0.068061 -0.000622
v 2.630340 0.050873 -0.041750
v 4.158724 0.061068 -0.048801
v 4.158835 0.013414 -0.068366
v 2.630435 0.009638 -0.058679
vt 0.069396 0.022758
vt 0.067649 0.004032
vt 0.163505 0.003988
vt 0.164229 0.022715
vt 0.628037 0.022758
vt 0.626291 0.004032
vt 0.722146 0.003988
vt 0.722869 0.022715
vt 0.559258 0.977285
vt 0.558535 0.996012
vt 0.462678 0.995968
vt 0.464426 0.977242
vt 0.300814 0.022758
vt 0.299067 0.004032
vt 0.394923 0.003988
vt 0.395647 0.022715
vt 0.462678 0.003570
vt 0.462678 0.022301
vt 0.231261 0.003570
vt 0.231260 0.022301
vt 0.789902 0.003570
vt 0.789901 0.022302
vt 0.233732 0.022406
vt 0.231261 0.003676
vt 0.552858 0.997992
vt 0.468095 0.997953
vt 0.304482 0.002047
vt 0.389246 0.002008
vt -0.000157 0.003676
vt 0.013107 0.001732
vt 0.073066 0.002047
vt 0.157828 0.002008
vt 0.217742 0.001638
vt 0.626291 0.996430
vt 0.612772 0.998362
vt 0.244523 0.001732
vt 0.631706 0.002047
vt 0.716470 0.002008
vt 0.082868 0.000030
vt 0.147759 0.000000
vt 0.641509 0.000030
vt 0.706400 0.000000
vt 0.542789 1.000000
vt 0.477898 0.999970
vt 0.314286 0.000030
vt 0.379176 0.000000
vt 0.994541 0.004993
vt 0.970553 0.005821
vt 0.924668 0.001998
vt 0.934603 0.000000
vt 0.849839 0.000000
vt 0.859776 0.001999
vt 0.813890 0.005821
vt 0.789902 0.004993
vt 0.789902 0.012055
vt 0.813891 0.011227
vt 0.859776 0.015050
vt 0.849839 0.017048
vt 0.934604 0.017049
vt 0.924668 0.015050
vt 0.970553 0.011227
vt 0.994541 0.012055
vt 0.840049 0.010325
vt 0.870610 0.012871
vt 0.913833 0.012871
vt 0.944394 0.010325
vt 0.913832 0.004178
vt 0.870611 0.004178
vt 0.840050 0.006724
vt 0.944393 0.006724
vt 0.201939 0.998848
vt 0.197853 0.999985
vt 0.164694 1.000000
vt 0.160457 0.998868
vt 0.760581 0.998849
vt 0.756496 0.999985
vt 0.723336 1.000000
vt 0.719099 0.998868
vt 0.555482 0.001132
vt 0.559719 0.000000
vt 0.592878 0.000015
vt 0.596965 0.001151
vt 0.433357 0.998849
vt 0.429269 0.999985
vt 0.396111 1.000000
vt 0.391876 0.998868
vt 0.819234 0.017049
vt 0.823396 0.017886
vt 0.799949 0.019839
vt 0.789902 0.019492
vt 0.890049 0.019492
vt 0.880003 0.019839
vt 0.856555 0.017886
vt 0.860716 0.017049
vt 0.860718 0.025392
vt 0.856556 0.024555
vt 0.880003 0.022602
vt 0.890049 0.022948
vt 0.789902 0.022948
vt 0.799949 0.022602
vt 0.823397 0.024555
vt 0.819235 0.025392
vt 0.866325 0.022130
vt 0.866324 0.020311
vt 0.829062 0.023415
vt 0.850890 0.023415
vt 0.813627 0.020311
vt 0.813628 0.022130
vt 0.829062 0.019025
vt 0.850890 0.019025
vt 0.127527 0.645873
vt 0.188302 0.645845
vt 0.686169 0.645873
vt 0.746943 0.645845
vt 0.583328 0.354155
vt 0.522553 0.354127
vt 0.358944 0.645873
vt 0.419720 0.645845
vt 0.131115 0.998713
vt 0.084537 0.645647
vt 0.231260 0.645580
vt 0.231260 0.998668
vt 0.789902 0.645580
vt 0.789902 0.998668
vt 0.362532 0.998714
vt 0.315953 0.645647
vt 0.312447 0.619067
vt 0.356465 0.619298
vt 0.626288 0.354420
vt 0.626288 0.381002
vt 0.582302 0.380731
vt 0.643178 0.645648
vt 0.639671 0.619067
vt 0.683690 0.619298
vt 0.418692 0.619269
vt 0.462678 0.618998
vt 0.462677 0.645580
vt 0.520075 0.380702
vt 0.745916 0.619269
vt 0.125047 0.619298
vt 0.187276 0.619269
vt 0.097627 0.325381
vt 0.076822 0.102345
vt 0.167303 0.102304
vt 0.175921 0.325345
vt 0.656270 0.325381
vt 0.635462 0.102345
vt 0.725945 0.102304
vt 0.734562 0.325346
vt 0.570948 0.674654
vt 0.562333 0.897696
vt 0.471851 0.897655
vt 0.492656 0.674619
vt 0.329046 0.325381
vt 0.308240 0.102345
vt 0.398721 0.102303
vt 0.407338 0.325346
vt 0.042246 0.325090
vt 0.012816 0.102009
vt 0.231261 0.101909
vt 0.231261 0.325004
vt 0.626288 0.674996
vt 0.626291 0.898091
vt 0.273663 0.325090
vt 0.244233 0.102009
vt 0.626290 0.977698
vt 0.002315 0.022406
vt 0.231261 0.618998
vt 0.462678 0.325004
vn -0.0033 -0.9251 -0.3798
vn -0.0042 -0.3798 0.9251
vn -0.0076 0.9250 0.3798
vn -0.0068 0.3798 -0.9251
vn -0.0049 -0.3856 -0.9227
vn -0.0030 -0.9227 0.3856
vn -0.0061 0.3856 0.9227
vn -0.0079 0.9226 -0.3856
vn 0.5023 0.8001 0.3278
vn 0.5031 0.3292 -0.7991
vn 0.5047 -0.3317 -0.7970
vn 0.5063 -0.7955 0.3328
vn 0.5037 0.3342 0.7966
vn 0.5021 0.7981 -0.3332
vn 0.5060 -0.7976 -0.3282
vn 0.5053 -0.3267 0.7987
vn 0.7298 -0.6320 -0.2605
vn 0.7293 -0.2584 0.6336
vn 0.7269 0.6356 0.2599
vn 0.7275 0.2620 -0.6341
vn 0.7288 -0.2624 -0.6325
vn 0.7300 -0.6304 0.2639
vn 0.7280 0.2660 0.6319
vn 0.7267 0.6340 -0.2645
vn 0.8729 0.1901 0.4493
vn 0.8720 0.4519 -0.1883
vn 0.8742 -0.4487 -0.1855
vn 0.8738 -0.1829 0.4505
vn 0.8721 0.4530 0.1847
vn 0.8725 0.1873 -0.4512
vn 0.8735 -0.1857 -0.4500
vn 0.8744 -0.4475 0.1876
vn 1.0000 0.0025 -0.0004
vn -0.5722 -0.7590 -0.3108
vn -0.5728 -0.3124 0.7578
vn -0.5757 0.7561 0.3112
vn -0.5750 0.3096 -0.7573
vn -0.5731 -0.3172 -0.7556
vn -0.5719 -0.7570 0.3160
vn -0.5743 0.3144 0.7558
vn -0.5759 0.7541 -0.3155
vn -0.9059 -0.1626 0.3910
vn -0.9074 0.3883 0.1607
vn -0.9071 0.1581 -0.3902
vn -0.9062 -0.1650 -0.3893
vn -0.9055 -0.3918 0.1632
vn -0.9068 0.1606 0.3899
vn -0.9075 0.3873 -0.1624
vn -0.9056 -0.3928 -0.1600
vn -1.0000 -0.0025 0.0004
usemtl black.003
s 1
f 1/1/1 2/2/1 3/3/1 4/4/1
f 5/5/2 6/6/2 7/7/2 8/8/2
f 9/9/3 10/10/3 11/11/3 12/12/3
f 13/13/4 14/14/4 15/15/4 16/16/4
f 16/16/5 15/15/5 2/17/5 1/18/5
f 4/4/6 3/3/6 6/19/6 5/20/6
f 8/8/7 7/7/7 10/21/7 9/22/7
f 12/23/8 11/24/8 14/14/8 13/13/8
f 10/10/9 17/25/9 18/26/9 11/11/9
f 14/14/10 19/27/10 20/28/10 15/15/10
f 15/29/11 20/30/11 21/31/11 2/2/11
f 3/3/12 22/32/12 23/33/12 6/19/12
f 7/34/13 24/35/13 17/25/13 10/10/13
f 11/24/14 18/36/14 19/27/14 14/14/14
f 2/2/15 21/31/15 22/32/15 3/3/15
f 6/6/16 23/37/16 24/38/16 7/7/16
f 21/31/17 25/39/17 26/40/17 22/32/17
f 23/37/18 27/41/18 28/42/18 24/38/18
f 17/25/19 29/43/19 30/44/19 18/26/19
f 19/27/20 31/45/20 32/46/20 20/28/20
f 20/47/21 32/48/21 25/49/21 21/50/21
f 22/51/22 26/52/22 27/53/22 23/54/22
f 24/55/23 28/56/23 29/57/23 17/58/23
f 18/59/24 30/60/24 31/61/24 19/62/24
f 28/56/25 33/63/25 34/64/25 29/57/25
f 30/60/26 35/65/26 36/66/26 31/61/26
f 25/49/27 37/67/27 38/68/27 26/52/27
f 27/53/28 39/69/28 33/63/28 28/56/28
f 29/57/29 34/64/29 35/65/29 30/60/29
f 31/61/30 36/66/30 40/70/30 32/48/30
f 32/48/31 40/70/31 37/67/31 25/49/31
f 26/52/32 38/68/32 39/69/32 27/53/32
f 36/66/33 35/65/33 34/64/33 33/63/33 39/69/33 38/68/33 37/67/33 40/70/33
f 41/71/34 42/72/34 43/73/34 44/74/34
f 45/75/35 46/76/35 47/77/35 48/78/35
f 49/79/36 50/80/36 51/81/36 52/82/36
f 53/83/37 54/84/37 55/85/37 56/86/37
f 44/87/38 43/88/38 54/89/38 53/90/38
f 48/91/39 47/92/39 42/93/39 41/94/39
f 52/95/40 51/96/40 46/97/40 45/98/40
f 56/99/41 55/100/41 50/101/41 49/102/41
f 46/97/42 57/103/42 58/104/42 47/92/42
f 50/101/43 59/105/43 60/106/43 51/96/43
f 54/89/44 61/107/44 62/108/44 55/100/44
f 43/88/45 63/109/45 61/107/45 54/89/45
f 47/92/46 58/104/46 64/110/46 42/93/46
f 51/96/47 60/106/47 57/103/47 46/97/47
f 55/100/48 62/108/48 59/105/48 50/101/48
f 42/93/49 64/110/49 63/109/49 43/88/49
f 62/108/50 61/107/50 63/109/50 64/110/50 58/104/50 57/103/50 60/106/50 59/105/50
usemtl wood_shaft.002
f 44/74/1 65/111/1 66/112/1 41/71/1
f 48/78/2 67/113/2 68/114/2 45/75/2
f 52/82/3 69/115/3 70/116/3 49/79/3
f 56/86/4 71/117/4 72/118/4 53/83/4
f 53/119/5 72/120/5 65/111/5 44/74/5
f 41/71/6 66/112/6 67/121/6 48/122/6
f 45/75/7 68/114/7 69/123/7 52/124/7
f 49/125/8 70/126/8 71/117/8 56/86/8
usemtl dark_wood.002
f 70/126/8 73/127/8 74/128/8 71/117/8
f 68/129/7 75/130/7 76/131/7 69/115/7
f 66/132/6 77/133/6 78/134/6 67/113/6
f 72/118/5 79/135/5 80/136/5 65/137/5
f 71/117/4 74/128/4 79/135/4 72/118/4
f 69/115/3 76/131/3 73/138/3 70/116/3
f 67/113/2 78/134/2 75/139/2 68/114/2
f 65/111/1 80/140/1 77/141/1 66/112/1
f 81/142/1 82/143/1 83/144/1 84/145/1
f 85/146/2 86/147/2 87/148/2 88/149/2
f 89/150/3 90/151/3 91/152/3 92/153/3
f 93/154/4 94/155/4 95/156/4 96/157/4
f 96/158/5 95/159/5 82/143/5 81/142/5
f 84/145/6 83/144/6 86/160/6 85/161/6
f 88/162/7 87/163/7 90/151/7 89/150/7
f 92/164/8 91/165/8 94/155/8 93/154/8
usemtl dark_red.003
f 91/165/8 12/23/8 13/13/8 94/155/8
f 87/163/7 8/166/7 9/9/7 90/151/7
f 83/144/6 4/4/6 5/20/6 86/160/6
f 95/159/5 16/167/5 1/1/5 82/143/5
f 94/155/4 13/13/4 16/16/4 95/156/4
f 90/151/3 9/9/3 12/12/3 91/152/3
f 86/147/2 5/5/2 8/8/2 87/148/2
f 82/143/1 1/1/1 4/4/1 83/144/1
f 73/127/8 92/164/8 93/154/8 74/128/8
f 75/130/7 88/162/7 89/150/7 76/131/7
f 77/141/6 84/145/6 85/161/6 78/168/6
f 79/135/5 96/157/5 81/169/5 80/136/5
f 74/128/4 93/154/4 96/157/4 79/135/4
f 76/131/3 89/150/3 92/153/3 73/138/3
f 78/134/2 85/146/2 88/149/2 75/139/2
f 80/140/1 81/142/1 84/145/1 77/141/1
